<?xml version="1.0" encoding="utf-8"?>
<!-- Generator: Adobe Illustrator 18.0.0, SVG Export Plug-In . SVG Version: 6.00 Build 0)  -->
<!DOCTYPE svg PUBLIC "-//W3C//DTD SVG 1.1//EN" "http://www.w3.org/Graphics/SVG/1.1/DTD/svg11.dtd">
<svg version="1.1" xmlns="http://www.w3.org/2000/svg" xmlns:xlink="http://www.w3.org/1999/xlink" x="0px" y="0px"
	 viewBox="0 0 99 124" enable-background="new 0 0 99 124" xml:space="preserve">
<g id="pdf_2_" display="none">
	<g id="pdf" display="inline">
		<g>
			<path fill-rule="evenodd" clip-rule="evenodd" d="M98.9,28.3c0-0.1,0-0.2-0.1-0.3c-0.1-0.3-0.3-0.5-0.5-0.7L71.6,0.6v0
				c-0.1-0.1-0.2-0.2-0.3-0.3c-0.1-0.1-0.2-0.1-0.4-0.2c-0.1,0-0.2-0.1-0.3-0.1C70.5,0,70.3,0,70.1,0H2.2C1,0,0,1,0,2.2v119.6
				c0,1.2,1,2.2,2.2,2.2h94.6c1.2,0,2.2-1,2.2-2.2V28.8C99,28.7,99,28.5,98.9,28.3z M72.3,7.5l19.2,19.2H72.3V7.5z M94.6,119.6H4.4
				V4.4h63.5v24.5c0,1.2,1,2.2,2.2,2.2h24.5V119.6z M59.2,71.2c-3.1-3.4-6.2-8.1-8.5-12.7c2.4-10.4,0.7-12.6,0-13.5
				c-0.8-1-1.9-1.5-3.1-1.5c-0.5,0-1,0.1-1.5,0.3c-1.3,0.4-2.3,1.4-2.9,2.7c-1.1,2.7-0.4,6.9,2.1,12.6c-1.5,5.9-4,12.8-6.6,18.6
				c-7.1,3.3-10.8,6.5-11.1,9.9c-0.1,1.1,0,3.2,2.4,5c0.7,0.5,1.5,0.8,2.4,0.8c2,0,3.8-1.4,5.9-4.3c1.3-1.9,2.8-4.4,4.3-7.5
				c4.6-2,10.1-3.7,14.9-4.8c2.9,2.7,5.6,4.1,8,4.1c2,0,3.7-0.9,4.9-2.6c1.6-2.3,1.3-4,0.8-5c-0.9-1.7-2.9-2.6-6.2-2.6
				C63.3,70.6,61.3,70.8,59.2,71.2z M32.4,89.2c-0.9-0.7-0.8-1.1-0.8-1.3c0.1-1,1.7-2.8,5.6-5C34.2,88.4,32.6,89.1,32.4,89.2z
				 M46.8,48.1c0.1-0.3,0.3-0.4,0.4-0.4c0.1,0,0.1,0,0.2,0c0.3,0.4,0.6,2,0,5.9C46.7,51.2,46.4,49.1,46.8,48.1z M43.5,76.7
				c1.8-4.4,3.6-9.2,4.9-13.7c2,3.7,4.5,7.2,6.9,10.1C51.4,73.9,47.3,75.2,43.5,76.7z M67.4,75.1c0,0.1-0.1,0.4-0.4,0.8
				c-0.6,0.8-1.1,0.9-1.5,0.9c-1,0-2.3-0.6-3.8-1.8c1.2-0.2,2.3-0.2,3.2-0.2C66.5,74.7,67.2,75,67.4,75.1z"/>
		</g>
	</g>
</g>
<g id="Layer_2" display="none">
	<g id="image" display="inline">
		<g>
			<path fill-rule="evenodd" clip-rule="evenodd" d="M98.9,28.4c-0.1-0.3-0.2-0.5-0.3-0.8c-0.1-0.1-0.2-0.2-0.3-0.3L71.6,0.6
				c-0.4-0.4-1-0.6-1.6-0.6H2.2C1,0,0,1,0,2.2v119.6c0,1.2,1,2.2,2.2,2.2h94.6c1.2,0,2.2-1,2.2-2.2V28.9C99,28.7,99,28.6,98.9,28.4z
				 M72.3,7.5l19.2,19.2H72.3V7.5z M94.6,119.6H4.4V4.4h63.5v24.5c0,1.2,1,2.2,2.2,2.2h24.5V119.6z M24.6,47.2v37.9
				c0,1.2,1,2.2,2.2,2.2h45.4c1.2,0,2.2-1,2.2-2.2V47.2c0-1.2-1-2.2-2.2-2.2H26.8C25.6,45,24.6,46,24.6,47.2z M29,49.4h41v18.2
				l-9.2-9.2c-0.8-0.8-2.3-0.8-3.1,0L43.3,72.7l-4.2-4.3c-0.8-0.8-2.3-0.8-3.1,0l-6.9,7V49.4z M29,81.6l8.5-8.5l4.3,4.2
				c0.8,0.8,2.3,0.8,3.1,0l14.3-14.3L70,73.8V83H29V81.6z M46.6,59.2c0-3.6-2.9-6.5-6.5-6.5c-3.6,0-6.5,2.9-6.5,6.5
				c0,3.6,2.9,6.5,6.5,6.5C43.7,65.7,46.6,62.8,46.6,59.2z M38,59.2c0-1.1,0.9-2.1,2.1-2.1c1.2,0,2.1,0.9,2.1,2.1
				c0,1.1-0.9,2.1-2.1,2.1C38.9,61.3,38,60.4,38,59.2z"/>
		</g>
	</g>
</g>
<g id="Layer_3" display="none">
	<g id="video" display="inline">
		<g>
			<path fill-rule="evenodd" clip-rule="evenodd" d="M98.9,28.4c-0.1-0.3-0.2-0.5-0.3-0.8c-0.1-0.1-0.2-0.2-0.3-0.3L71.6,0.6
				c-0.4-0.4-1-0.6-1.6-0.6H2.2C1,0,0,1,0,2.2v119.6c0,1.2,1,2.2,2.2,2.2h94.6c1.2,0,2.2-1,2.2-2.2V28.9C99,28.7,99,28.6,98.9,28.4z
				 M72.3,7.5l19.2,19.2H72.3V7.5z M94.6,119.6H4.4V4.4h63.5v24.5c0,1.2,1,2.2,2.2,2.2h24.5V119.6z M59.9,67l-14.5-9.9
				c-0.7-0.5-1.5-0.5-2.3-0.1c-0.7,0.4-1.2,1.1-1.2,1.9v19.8c0,0.8,0.5,1.6,1.2,1.9c0.3,0.2,0.7,0.3,1,0.3c0.4,0,0.9-0.1,1.2-0.4
				l14.5-9.9c0.6-0.4,1-1.1,1-1.8C60.9,68.1,60.5,67.4,59.9,67z M46.4,74.6V63.1l8.4,5.8L46.4,74.6z M49.5,45.6
				c-12.8,0-23.3,10.4-23.3,23.3c0,12.8,10.5,23.3,23.3,23.3c12.8,0,23.3-10.4,23.3-23.3C72.8,56,62.3,45.6,49.5,45.6z M49.5,87.7
				c-10.4,0-18.9-8.5-18.9-18.9c0-10.4,8.5-18.9,18.9-18.9c10.4,0,18.9,8.5,18.9,18.9C68.4,79.3,59.9,87.7,49.5,87.7z"/>
		</g>
	</g>
</g>
<g id="Layer_4" display="none">
	<g id="zip" display="inline">
		<g>
			<path fill-rule="evenodd" clip-rule="evenodd" d="M98.9,28.4c-0.1-0.3-0.2-0.5-0.3-0.8c0,0,0,0,0,0c-0.1-0.1-0.2-0.2-0.3-0.3
				L71.7,0.6c-0.4-0.4-1-0.6-1.6-0.6H2.2C1,0,0,1,0,2.2v119.6c0,1.2,1,2.2,2.2,2.2h94.6c1.2,0,2.2-1,2.2-2.2V28.9
				C99,28.7,99,28.6,98.9,28.4z M72.3,7.5l19.2,19.2H72.3V7.5z M94.6,119.6H4.4V4.4h63.5v24.5c0,1.2,1,2.2,2.2,2.2h24.5V119.6z
				 M49.7,84.7c0.6,0,1.1-0.2,1.6-0.6c0.4-0.4,0.6-1,0.6-1.6c0-0.6-0.2-1.1-0.6-1.6c-0.8-0.8-2.3-0.8-3.1,0c-0.4,0.4-0.6,1-0.6,1.6
				c0,0.6,0.2,1.1,0.6,1.6C48.5,84.5,49.1,84.7,49.7,84.7z M55.8,68.4h-3.9v-2.7h3c1.2,0,2.2-1,2.2-2.2c0-1.2-1-2.2-2.2-2.2h-3v-3.2
				h3c1.2,0,2.2-1,2.2-2.2c0-1.2-1-2.2-2.2-2.2h-3v-3.2h3c1.2,0,2.2-1,2.2-2.2c0-1.2-1-2.2-2.2-2.2h-3v-1.6c0-1.2-1-2.2-2.2-2.2
				h-5.2c-1.2,0-2.2,1-2.2,2.2c0,1.2,1,2.2,2.2,2.2h3v3.2h-3c-1.2,0-2.2,1-2.2,2.2c0,1.2,1,2.2,2.2,2.2h3v3.2h-3
				c-1.2,0-2.2,1-2.2,2.2c0,1.2,1,2.2,2.2,2.2h3v6.5h-4.3c-1.2,0-2.2,1-2.2,2.2V89c0,1.2,1,2.2,2.2,2.2h12.7c1.2,0,2.2-1,2.2-2.2
				V70.6C58,69.4,57,68.4,55.8,68.4z M53.6,86.8h-8.3v-14h8.3V86.8z"/>
		</g>
	</g>
</g>
<g id="Layer_5">
	<g id="txt">
		<g>
			<path fill-rule="evenodd" clip-rule="evenodd" d="M98.9,28.4c0-0.3-0.2-0.6-0.3-0.8c-0.1-0.1-0.1-0.2-0.2-0.3h0L71.7,0.6
				c-0.4-0.4-1-0.6-1.6-0.6H2.2C1,0,0,1,0,2.2v119.6c0,1.2,1,2.2,2.2,2.2h94.6c1.2,0,2.2-1,2.2-2.2V28.9C99,28.7,99,28.6,98.9,28.4z
				 M72.3,7.5l19.2,19.2H72.3V7.5z M94.6,119.6H4.4V4.4h63.5v24.5c0,1.2,1,2.2,2.2,2.2h24.5V119.6z M26.8,55.2
				c1.1,0,2.1-0.8,2.2-1.9h3.3v11.2c-1.1,0.1-1.9,1.1-1.9,2.2c0,1.2,1,2.2,2.2,2.2h3.9c1.2,0,2.2-1,2.2-2.2c0-1.1-0.8-2-1.9-2.2
				V53.2h2.7c0.1,1.1,1,1.9,2.2,1.9c1.2,0,2.2-1,2.2-2.2v-3.9c0-1.2-1-2.2-2.2-2.2c-1.1,0-2.1,0.9-2.2,1.9H29
				c-0.1-1.1-1.1-1.9-2.2-1.9c-1.2,0-2.2,1-2.2,2.2V53C24.6,54.2,25.6,55.2,26.8,55.2z M72.2,73.8H26.8c-1.2,0-2.2,1-2.2,2.2
				c0,1.2,1,2.2,2.2,2.2h45.4c1.2,0,2.2-1,2.2-2.2C74.4,74.8,73.4,73.8,72.2,73.8z M72.2,83H26.8c-1.2,0-2.2,1-2.2,2.2
				c0,1.2,1,2.2,2.2,2.2h45.4c1.2,0,2.2-1,2.2-2.2C74.4,84,73.4,83,72.2,83z M47.3,57.4c0,1.2,1,2.2,2.2,2.2h22.6
				c1.2,0,2.2-1,2.2-2.2c0-1.2-1-2.2-2.2-2.2H49.5C48.3,55.2,47.3,56.2,47.3,57.4z M72.2,64.4H49.5c-1.2,0-2.2,1-2.2,2.2
				c0,1.2,1,2.2,2.2,2.2h22.6c1.2,0,2.2-1,2.2-2.2C74.4,65.4,73.4,64.4,72.2,64.4z"/>
		</g>
	</g>
</g>
<g id="Layer_6" display="none">
	<g id="powerpoint" display="inline">
		<g>
			<path fill-rule="evenodd" clip-rule="evenodd" d="M98.3,27.3L71.6,0.6c-0.4-0.4-1-0.6-1.6-0.6H2.2C1,0,0,1,0,2.2v119.6
				c0,1.2,1,2.2,2.2,2.2h94.6c1.2,0,2.2-1,2.2-2.2V28.9C99,28.3,98.7,27.7,98.3,27.3z M72.3,7.5l19.2,19.2H72.3V7.5z M94.6,119.6
				H4.4V4.4h63.5v24.5c0,1.2,1,2.2,2.2,2.2h24.5V119.6z M52.4,45.9c-1.2,0-2.2,1-2.2,2.2v17.8c0,1.2,1,2.2,2.2,2.2h17.8
				c1.2,0,2.2-1,2.2-2.2C72.4,54.9,63.5,45.9,52.4,45.9z M54.6,63.7V50.5c6.9,1,12.3,6.4,13.3,13.3H54.6z M64.1,69.9H48.4V54.3
				c0-1.2-1-2.2-2.2-2.2c-11,0-20,9-20,20c0,11,9,20,20,20c11,0,20-9,20-20C66.3,70.9,65.3,69.9,64.1,69.9z M46.2,87.7
				c-8.6,0-15.6-7-15.6-15.6c0-7.9,5.9-14.4,13.4-15.5v15.5c0,1.2,1,2.2,2.2,2.2h15.5C60.7,81.9,54.1,87.7,46.2,87.7z"/>
		</g>
	</g>
</g>
<g id="Layer_7" display="none">
	<g id="music" display="inline">
		<g>
			<path fill-rule="evenodd" clip-rule="evenodd" d="M98.3,27.3L71.6,0.6c-0.4-0.4-1-0.6-1.6-0.6H2.2C1,0,0,1,0,2.2v119.6
				c0,1.2,1,2.2,2.2,2.2h94.6c1.2,0,2.2-1,2.2-2.2V28.9C99,28.3,98.7,27.7,98.3,27.3z M72.3,7.5l19.2,19.2H72.3V7.5z M94.6,119.6
				H4.4V4.4h63.5v24.5c0,1.2,1,2.2,2.2,2.2h24.5V119.6z M69.2,46.7c0-0.1-0.1-0.2-0.1-0.3c-0.1-0.1-0.1-0.3-0.2-0.4
				c0-0.1-0.1-0.2-0.2-0.2c0-0.1-0.1-0.1-0.1-0.1c0,0-0.1-0.1-0.1-0.1c-0.1-0.1-0.1-0.1-0.2-0.1c0,0,0,0,0,0
				c-0.1-0.1-0.1-0.1-0.2-0.1c-0.2-0.1-0.4-0.1-0.6-0.2c-0.1,0-0.2,0-0.4,0c-0.1,0-0.3,0-0.4,0c0,0-0.1,0-0.1,0l-24.8,6.2
				c-0.1,0-0.1,0-0.2,0.1c-0.1,0-0.2,0-0.2,0.1c-0.3,0.1-0.6,0.3-0.8,0.6c-0.1,0.1-0.2,0.2-0.2,0.3c-0.1,0.1-0.1,0.2-0.2,0.3
				c0,0,0,0,0,0C40.1,52.8,40,52.9,40,53c0,0.1-0.1,0.3-0.1,0.5v22.9c-1.3-0.7-2.7-1.2-4.3-1.2c-4.8,0-8.7,3.9-8.7,8.7
				c0,4.8,3.9,8.7,8.7,8.7c4.8,0,8.7-3.9,8.7-8.7V55.2l20.6-5.2v20.1c-1.3-0.7-2.7-1.1-4.3-1.1c-4.8,0-8.7,3.9-8.7,8.7
				c0,4.8,3.9,8.7,8.7,8.7c4.8,0,8.7-3.9,8.7-8.7V47.2C69.3,47.1,69.3,47,69.2,46.7C69.3,46.8,69.2,46.7,69.2,46.7z M35.6,88.3
				c-2.4,0-4.3-1.9-4.3-4.3c0-2.4,1.9-4.3,4.3-4.3c2.4,0,4.3,1.9,4.3,4.3C39.9,86.3,38,88.3,35.6,88.3z M60.6,82
				c-2.4,0-4.3-1.9-4.3-4.3c0-2.4,1.9-4.3,4.3-4.3c2.4,0,4.3,1.9,4.3,4.3C64.9,80.1,63,82,60.6,82z"/>
		</g>
	</g>
</g>
<g id="Layer_8" display="none">
	<g id="powerpoint_or_excel" display="inline">
		<g>
			<path fill-rule="evenodd" clip-rule="evenodd" d="M98.3,27.3L71.7,0.6c-0.2-0.2-0.4-0.3-0.6-0.4c-0.3-0.2-0.6-0.2-1-0.2H2.2
				C1,0,0,1,0,2.2v119.6c0,1.2,1,2.2,2.2,2.2h94.6c1.2,0,2.2-1,2.2-2.2V28.9C99,28.3,98.7,27.7,98.3,27.3z M72.3,7.5l19.2,19.2H72.3
				V7.5z M94.6,119.6H4.4V4.4h63.5v24.5c0,1.2,1,2.2,2.2,2.2h24.5V119.6z M61.6,47.2v37.9c0,1.2,1,2.2,2.2,2.2h8.3
				c1.2,0,2.2-1,2.2-2.2V47.2c0-1.2-1-2.2-2.2-2.2h-8.3C62.6,45.1,61.6,46,61.6,47.2z M66,49.4H70V83H66V49.4z M53.7,54.7h-8.3
				c-1.2,0-2.2,1-2.2,2.2v28.3c0,1.2,1,2.2,2.2,2.2h8.3c1.2,0,2.2-1,2.2-2.2V56.9C55.9,55.7,54.9,54.7,53.7,54.7z M51.5,83h-3.9
				V59.1h3.9V83z M35.1,64h-8.3c-1.2,0-2.2,1-2.2,2.2v19c0,1.2,1,2.2,2.2,2.2h8.3c1.2,0,2.2-1,2.2-2.2v-19C37.3,65,36.4,64,35.1,64z
				 M32.9,83H29V68.4h3.9V83z"/>
		</g>
	</g>
</g>
<g id="Layer_9" display="none">
	<g id="excel" display="inline">
		<g>
			<path fill-rule="evenodd" clip-rule="evenodd" d="M98.3,27.3L71.6,0.6c-0.4-0.4-1-0.6-1.6-0.6H2.2C1,0,0,1,0,2.2v119.6
				c0,1.2,1,2.2,2.2,2.2h94.6c1.2,0,2.2-1,2.2-2.2V28.9C99,28.3,98.7,27.7,98.3,27.3z M72.3,7.5l19.2,19.2H72.3V7.5z M94.6,119.6
				H4.4V4.4h63.5v24.5c0,1.2,1,2.2,2.2,2.2h24.5V119.6z M24.6,47.2v37.9c0,1.2,1,2.2,2.2,2.2h45.4c1.2,0,2.2-1,2.2-2.2V47.2
				c0-1.2-1-2.2-2.2-2.2H26.8C25.6,45,24.6,46,24.6,47.2z M51.7,49.4H70v8.3H51.7V49.4z M51.7,62.1H70v8.3H51.7V62.1z M51.7,74.7H70
				V83H51.7V74.7z M29,49.4h18.3v8.3H29V49.4z M29,62.1h18.3v8.3H29V62.1z M29,74.7h18.3V83H29V74.7z"/>
		</g>
	</g>
</g>
<g id="Layer_10" display="none">
	<g id="eps_or_ai_2" display="inline">
		<g>
			<path fill-rule="evenodd" clip-rule="evenodd" d="M98.9,28.4c-0.1-0.3-0.2-0.5-0.3-0.8c0,0,0,0,0,0c-0.1-0.1-0.2-0.2-0.3-0.3
				L71.7,0.6c-0.1-0.1-0.2-0.2-0.3-0.3c-0.1-0.1-0.2-0.1-0.2-0.1c-0.1,0-0.1-0.1-0.2-0.1c0,0-0.1,0-0.2-0.1c0,0-0.1,0-0.1,0
				c0,0-0.1,0-0.1,0c-0.1,0-0.2,0-0.4,0H2.2C1,0,0,1,0,2.2v119.6c0,1.2,1,2.2,2.2,2.2h94.6c1.2,0,2.2-1,2.2-2.2V28.9
				C99,28.7,99,28.6,98.9,28.4z M72.3,7.5l19.2,19.2H72.3V7.5z M94.6,119.6H4.4V4.4h63.5v24.5c0,1.2,1,2.2,2.2,2.2h24.5V119.6z
				 M66.5,59H55.6v-1.6c0-1.2-1-2.2-2.2-2.2h-7.6c-1.2,0-2.2,1-2.2,2.2V59H32.6c-0.2-1-1.1-1.7-2.1-1.7h-3.4c-1.2,0-2.2,1-2.2,2.2
				v3.4c0,1.2,1,2.2,2.2,2.2h3.4c1.1,0,1.9-0.7,2.1-1.7h3.4c-5.8,4.2-9.5,11-9.5,18.6c0,1.2,1,2.2,2.2,2.2c1.2,0,2.2-1,2.2-2.2
				c0-8,5.2-15.1,12.6-17.6V65c0,1.2,1,2.2,2.2,2.2h7.6c1.2,0,2.2-1,2.2-2.2v-0.6C63,66.9,68.2,73.9,68.2,82c0,1.2,1,2.2,2.2,2.2
				c1.2,0,2.2-1,2.2-2.2c0-7.6-3.7-14.4-9.4-18.6h3.4c0.2,1,1.1,1.7,2.1,1.7h3.4c1.2,0,2.2-1,2.2-2.2v-3.4c0-1.2-1-2.2-2.2-2.2h-3.4
				C67.6,57.3,66.7,58.1,66.5,59z M51.2,62.8H48v-3.2h3.2V62.8z"/>
		</g>
	</g>
</g>
<g id="Layer_11" display="none">
	<g id="code" display="inline">
		<g>
			<path fill-rule="evenodd" clip-rule="evenodd" d="M98.9,28.4c-0.1-0.3-0.2-0.5-0.3-0.8c-0.1-0.1-0.2-0.2-0.3-0.3L71.6,0.6
				c-0.4-0.4-1-0.6-1.6-0.6H2.2C1,0,0,1,0,2.2v119.6c0,1.2,1,2.2,2.2,2.2h94.6c1.2,0,2.2-1,2.2-2.2V28.9C99,28.7,99,28.6,98.9,28.4z
				 M72.3,7.5l19.2,19.2H72.3V7.5z M94.6,119.6H4.4V4.4h63.5v24.5c0,1.2,1,2.2,2.2,2.2h24.5V119.6z M36.7,58.9
				c-0.7-1-2.1-1.3-3.1-0.6L20.8,67c-0.6,0.4-1,1.1-1,1.8s0.4,1.4,1,1.8l12.8,8.7c0.4,0.3,0.8,0.4,1.2,0.4c0.7,0,1.4-0.3,1.8-1
				c0.7-1,0.4-2.4-0.6-3.1L26,68.8l10.1-6.9C37.1,61.2,37.4,59.9,36.7,58.9z M62.3,58.9c-0.7,1-0.4,2.4,0.6,3.1L73,68.8l-10.1,6.9
				c-1,0.7-1.3,2.1-0.6,3.1c0.4,0.6,1.1,1,1.8,1c0.4,0,0.9-0.1,1.2-0.4l12.8-8.7c0.6-0.4,1-1.1,1-1.8s-0.4-1.4-1-1.8l-12.8-8.7
				C64.3,57.6,63,57.9,62.3,58.9z M55.3,54c-1.1-0.4-2.4,0.1-2.8,1.2l-10,25.6c-0.4,1.1,0.1,2.4,1.2,2.8c0.3,0.1,0.5,0.2,0.8,0.2
				c0.9,0,1.7-0.5,2-1.4l10-25.6C57,55.7,56.4,54.5,55.3,54z"/>
		</g>
	</g>
</g>
</svg>
