<svg xmlns="http://www.w3.org/2000/svg" xmlns:xlink="http://www.w3.org/1999/xlink" id="Layer_1" x="0" y="0" enable-background="new 0 12.7 612 766.5" version="1.1" viewBox="0 12.7 612 766.5" xml:space="preserve"><g id="pdf_2_" display="none"><g id="pdf" display="inline"><g><path d="M611.4,187.7c0-0.6,0-1.2-0.6-1.9c-0.6-1.9-1.9-3.1-3.1-4.3L442.6,16.4l0,0c-0.6-0.6-1.2-1.2-1.9-1.9s-1.2-0.6-2.5-1.2 c-0.6,0-1.2-0.6-1.9-0.6c-0.6,0-1.9,0-3.1,0H13.6C6.2,12.7,0,18.9,0,26.3v739.3c0,7.4,6.2,13.6,13.6,13.6h584.8 c7.4,0,13.6-6.2,13.6-13.6V190.8C612,190.1,612,188.9,611.4,187.7z M446.9,59.1l118.7,118.7H446.9V59.1z M584.8,752.1H27.2V39.9 h392.5v151.5c0,7.4,6.2,13.6,13.6,13.6h151.5V752.1z M366,452.9c-19.2-21-38.3-50.1-52.5-78.5c14.8-64.3,4.3-77.9,0-83.5 c-4.9-6.2-11.7-9.3-19.2-9.3c-3.1,0-6.2,0.6-9.3,1.9c-8,2.5-14.2,8.7-17.9,16.7c-6.8,16.7-2.5,42.7,13,77.9 c-9.3,36.5-24.7,79.1-40.8,115c-43.9,20.4-66.8,40.2-68.6,61.2c-0.6,6.8,0,19.8,14.8,30.9c4.3,3.1,9.3,4.9,14.8,4.9 c12.4,0,23.5-8.7,36.5-26.6c8-11.7,17.3-27.2,26.6-46.4c28.4-12.4,62.4-22.9,92.1-29.7c17.9,16.7,34.6,25.3,49.5,25.3 c12.4,0,22.9-5.6,30.3-16.1c9.9-14.2,8-24.7,4.9-30.9c-5.6-10.5-17.9-16.1-38.3-16.1C391.3,449.2,378.9,450.4,366,452.9z M200.3,564.1c-5.6-4.3-4.9-6.8-4.9-8c0.6-6.2,10.5-17.3,34.6-30.9C211.4,559.2,201.5,563.5,200.3,564.1z M289.3,310.1 c0.6-1.9,1.9-2.5,2.5-2.5c0.6,0,0.6,0,1.2,0c1.9,2.5,3.7,12.4,0,36.5C288.7,329.2,286.8,316.3,289.3,310.1z M268.9,486.9 c11.1-27.2,22.3-56.9,30.3-84.7c12.4,22.9,27.8,44.5,42.7,62.4C317.7,469.6,292.4,477.6,268.9,486.9z M416.7,477 c0,0.6-0.6,2.5-2.5,4.9c-3.7,4.9-6.8,5.6-9.3,5.6c-6.2,0-14.2-3.7-23.5-11.1c7.4-1.2,14.2-1.2,19.8-1.2 C411.1,474.5,415.4,476.4,416.7,477z"/></g></g></g><g id="Layer_2" display="none"><g id="image" display="inline"><g><path d="M611.4,188.3c-0.6-1.9-1.2-3.1-1.9-4.9c-0.6-0.6-1.2-1.2-1.9-1.9L442.6,16.4c-2.5-2.5-6.2-3.7-9.9-3.7H13.6 C6.2,12.7,0,18.9,0,26.3v739.3c0,7.4,6.2,13.6,13.6,13.6h584.8c7.4,0,13.6-6.2,13.6-13.6V191.4C612,190.1,612,189.5,611.4,188.3z M446.9,59.1l118.7,118.7H446.9V59.1z M584.8,752.1H27.2V39.9h392.5v151.5c0,7.4,6.2,13.6,13.6,13.6h151.5V752.1z M152.1,304.5 v234.3c0,7.4,6.2,13.6,13.6,13.6h280.7c7.4,0,13.6-6.2,13.6-13.6V304.5c0-7.4-6.2-13.6-13.6-13.6H165.7 C158.3,290.9,152.1,297.1,152.1,304.5z M179.3,318.1h253.5v112.5l-56.9-56.9c-4.9-4.9-14.2-4.9-19.2,0l-89,88.4l-26-26.6 c-4.9-4.9-14.2-4.9-19.2,0l-42.7,43.3V318.1H179.3z M179.3,517.2l52.5-52.5l26.6,26c4.9,4.9,14.2,4.9,19.2,0l88.4-88.4l66.8,66.8 v56.9H179.3V517.2z M288.1,378.7c0-22.3-17.9-40.2-40.2-40.2c-22.3,0-40.2,17.9-40.2,40.2c0,22.3,17.9,40.2,40.2,40.2 S288.1,400.9,288.1,378.7z M234.9,378.7c0-6.8,5.6-13,13-13c7.4,0,13,5.6,13,13c0,6.8-5.6,13-13,13 C240.5,391.7,234.9,386.1,234.9,378.7z"/></g></g></g><g id="Layer_3" display="none"><g id="video" display="inline"><g><path d="M611.4,188.3c-0.6-1.9-1.2-3.1-1.9-4.9c-0.6-0.6-1.2-1.2-1.9-1.9L442.6,16.4c-2.5-2.5-6.2-3.7-9.9-3.7H13.6 C6.2,12.7,0,18.9,0,26.3v739.3c0,7.4,6.2,13.6,13.6,13.6h584.8c7.4,0,13.6-6.2,13.6-13.6V191.4C612,190.1,612,189.5,611.4,188.3z M446.9,59.1l118.7,118.7H446.9V59.1z M584.8,752.1H27.2V39.9h392.5v151.5c0,7.4,6.2,13.6,13.6,13.6h151.5V752.1z M370.3,426.9 l-89.6-61.2c-4.3-3.1-9.3-3.1-14.2-0.6c-4.3,2.5-7.4,6.8-7.4,11.7v122.4c0,4.9,3.1,9.9,7.4,11.7c1.9,1.2,4.3,1.9,6.2,1.9 c2.5,0,5.6-0.6,7.4-2.5l89.6-61.2c3.7-2.5,6.2-6.8,6.2-11.1C376.5,433.7,374,429.4,370.3,426.9z M286.8,473.9v-71.1l51.9,35.9 L286.8,473.9z M306,294.6c-79.1,0-144,64.3-144,144c0,79.1,64.9,144,144,144s144-64.3,144-144S385.1,294.6,306,294.6z M306,554.9 c-64.3,0-116.8-52.5-116.8-116.8S241.7,321.2,306,321.2S422.8,373.7,422.8,438C422.8,502.9,370.3,554.9,306,554.9z"/></g></g></g><g id="Layer_4"><g id="zip"><g><path d="M611.4,188.3c-0.6-1.9-1.2-3.1-1.9-4.9l0,0c-0.6-0.6-1.2-1.2-1.9-1.9L443.2,16.4c-2.5-2.5-6.2-3.7-9.9-3.7H13.6 C6.2,12.7,0,18.9,0,26.3v739.3c0,7.4,6.2,13.6,13.6,13.6h584.8c7.4,0,13.6-6.2,13.6-13.6V191.4C612,190.1,612,189.5,611.4,188.3z M446.9,59.1l118.7,118.7H446.9V59.1z M584.8,752.1H27.2V39.9h392.5v151.5c0,7.4,6.2,13.6,13.6,13.6h151.5V752.1z M307.2,536.3 c3.7,0,6.8-1.2,9.9-3.7c2.5-2.5,3.7-6.2,3.7-9.9c0-3.7-1.2-6.8-3.7-9.9c-4.9-4.9-14.2-4.9-19.2,0c-2.5,2.5-3.7,6.2-3.7,9.9 c0,3.7,1.2,6.8,3.7,9.9C299.8,535.1,303.5,536.3,307.2,536.3z M344.9,435.6h-24.1v-16.7h18.5c7.4,0,13.6-6.2,13.6-13.6 s-6.2-13.6-13.6-13.6h-18.5v-19.8h18.5c7.4,0,13.6-6.2,13.6-13.6s-6.2-13.6-13.6-13.6h-18.5v-19.8h18.5c7.4,0,13.6-6.2,13.6-13.6 c0-7.4-6.2-13.6-13.6-13.6h-18.5v-9.9c0-7.4-6.2-13.6-13.6-13.6h-32.1c-7.4,0-13.6,6.2-13.6,13.6s6.2,13.6,13.6,13.6h18.5v19.8 h-18.5c-7.4,0-13.6,6.2-13.6,13.6s6.2,13.6,13.6,13.6h18.5v19.8h-18.5c-7.4,0-13.6,6.2-13.6,13.6s6.2,13.6,13.6,13.6h18.5v40.2 h-26.6c-7.4,0-13.6,6.2-13.6,13.6v113.7c0,7.4,6.2,13.6,13.6,13.6h78.5c7.4,0,13.6-6.2,13.6-13.6V449.2 C358.5,441.7,352.4,435.6,344.9,435.6z M331.3,549.3H280v-86.5h51.3V549.3z"/></g></g></g><g id="Layer_5" display="none"><g id="txt" display="inline"><g><path d="M611.4,188.3c0-1.9-1.2-3.7-1.9-4.9c-0.6-0.6-0.6-1.2-1.2-1.9l0,0L443.2,16.4c-2.5-2.5-6.2-3.7-9.9-3.7H13.6 C6.2,12.7,0,18.9,0,26.3v739.3c0,7.4,6.2,13.6,13.6,13.6h584.8c7.4,0,13.6-6.2,13.6-13.6V191.4C612,190.1,612,189.5,611.4,188.3z M446.9,59.1l118.7,118.7H446.9V59.1z M584.8,752.1H27.2V39.9h392.5v151.5c0,7.4,6.2,13.6,13.6,13.6h151.5V752.1z M165.7,354 c6.8,0,13-4.9,13.6-11.7h20.4v69.2c-6.8,0.6-11.7,6.8-11.7,13.6c0,7.4,6.2,13.6,13.6,13.6h24.1c7.4,0,13.6-6.2,13.6-13.6 c0-6.8-4.9-12.4-11.7-13.6v-69.9h16.7c0.6,6.8,6.2,11.7,13.6,11.7c7.4,0,13.6-6.2,13.6-13.6v-24.1c0-7.4-6.2-13.6-13.6-13.6 c-6.8,0-13,5.6-13.6,11.7h-64.9c-0.6-6.8-6.8-11.7-13.6-11.7c-7.4,0-13.6,6.2-13.6,13.6v24.7C152.1,347.8,158.3,354,165.7,354z M446.3,468.9H165.7c-7.4,0-13.6,6.2-13.6,13.6c0,7.4,6.2,13.6,13.6,13.6h280.7c7.4,0,13.6-6.2,13.6-13.6 C459.9,475.1,453.7,468.9,446.3,468.9z M446.3,525.8H165.7c-7.4,0-13.6,6.2-13.6,13.6s6.2,13.6,13.6,13.6h280.7 c7.4,0,13.6-6.2,13.6-13.6C459.9,532,453.7,525.8,446.3,525.8z M292.4,367.6c0,7.4,6.2,13.6,13.6,13.6h139.7 c7.4,0,13.6-6.2,13.6-13.6s-6.2-13.6-13.6-13.6H306C298.6,354,292.4,360.1,292.4,367.6z M446.3,410.8H306 c-7.4,0-13.6,6.2-13.6,13.6c0,7.4,6.2,13.6,13.6,13.6h139.7c7.4,0,13.6-6.2,13.6-13.6C459.9,417,453.7,410.8,446.3,410.8z"/></g></g></g><g id="Layer_6" display="none"><g id="powerpoint" display="inline"><g><path d="M607.7,181.5L442.6,16.4c-2.5-2.5-6.2-3.7-9.9-3.7H13.6C6.2,12.7,0,18.9,0,26.3v739.3c0,7.4,6.2,13.6,13.6,13.6h584.8 c7.4,0,13.6-6.2,13.6-13.6V191.4C612,187.7,610.1,184,607.7,181.5z M446.9,59.1l118.7,118.7H446.9V59.1z M584.8,752.1H27.2V39.9 h392.5v151.5c0,7.4,6.2,13.6,13.6,13.6h151.5V752.1z M323.9,296.5c-7.4,0-13.6,6.2-13.6,13.6v110c0,7.4,6.2,13.6,13.6,13.6h110 c7.4,0,13.6-6.2,13.6-13.6C447.6,352.1,392.5,296.5,323.9,296.5z M337.5,406.5v-81.6c42.7,6.2,76,39.6,82.2,82.2h-82.2V406.5z M396.3,444.8h-97.1v-96.4c0-7.4-6.2-13.6-13.6-13.6c-68,0-123.6,55.6-123.6,123.6s55.6,123.6,123.6,123.6 s123.6-55.6,123.6-123.6C409.9,451,403.7,444.8,396.3,444.8z M285.6,554.9c-53.2,0-96.4-43.3-96.4-96.4c0-48.8,36.5-89,82.8-95.8 v95.8c0,7.4,6.2,13.6,13.6,13.6h95.8C375.2,519,334.4,554.9,285.6,554.9z"/></g></g></g><g id="Layer_7" display="none"><g id="music" display="inline"><g><path d="M607.7,181.5L442.6,16.4c-2.5-2.5-6.2-3.7-9.9-3.7H13.6C6.2,12.7,0,18.9,0,26.3v739.3c0,7.4,6.2,13.6,13.6,13.6h584.8 c7.4,0,13.6-6.2,13.6-13.6V191.4C612,187.7,610.1,184,607.7,181.5z M446.9,59.1l118.7,118.7H446.9V59.1z M584.8,752.1H27.2V39.9 h392.5v151.5c0,7.4,6.2,13.6,13.6,13.6h151.5V752.1z M427.8,301.4c0-0.6-0.6-1.2-0.6-1.9c-0.6-0.6-0.6-1.9-1.2-2.5 c0-0.6-0.6-1.2-1.2-1.2c0-0.6-0.6-0.6-0.6-0.6l-0.6-0.6c-0.6-0.6-0.6-0.6-1.2-0.6l0,0c-0.6-0.6-0.6-0.6-1.2-0.6 c-1.2-0.6-2.5-0.6-3.7-1.2c-0.6,0-1.2,0-2.5,0c-0.6,0-1.9,0-2.5,0h-0.6l-153.3,38.3c-0.6,0-0.6,0-1.2,0.6c-0.6,0-1.2,0-1.2,0.6 c-1.9,0.6-3.7,1.9-4.9,3.7c-0.6,0.6-1.2,1.2-1.2,1.9c-0.6,0.6-0.6,1.2-1.2,1.9l0,0c-0.6,0-1.2,0.6-1.2,1.2s-0.6,1.9-0.6,3.1V485 c-8-4.3-16.7-7.4-26.6-7.4c-29.7,0-53.8,24.1-53.8,53.8c0,29.7,24.1,53.8,53.8,53.8s53.8-24.1,53.8-53.8V354l127.3-32.1v124.3 c-8-4.3-16.7-6.8-26.6-6.8c-29.7,0-53.8,24.1-53.8,53.8c0,29.7,24.1,53.8,53.8,53.8c29.7,0,53.8-24.1,53.8-53.8V304.5 C428.4,303.9,428.4,303.3,427.8,301.4C428.4,302,427.8,301.4,427.8,301.4z M220.1,558.6c-14.8,0-26.6-11.7-26.6-26.6 s11.7-26.6,26.6-26.6c14.8,0,26.6,11.7,26.6,26.6C246.7,546.2,234.9,558.6,220.1,558.6z M374.6,519.6 c-14.8,0-26.6-11.7-26.6-26.6s11.7-26.6,26.6-26.6s26.6,11.7,26.6,26.6S389.5,519.6,374.6,519.6z"/></g></g></g><g id="Layer_8" display="none"><g id="powerpoint_or_excel" display="inline"><g><path d="M607.7,181.5L443.2,16.4c-1.2-1.2-2.5-1.9-3.7-2.5c-1.9-1.2-3.7-1.2-6.2-1.2H13.6C6.2,12.7,0,18.9,0,26.3v739.3 c0,7.4,6.2,13.6,13.6,13.6h584.8c7.4,0,13.6-6.2,13.6-13.6V191.4C612,187.7,610.1,184,607.7,181.5z M446.9,59.1l118.7,118.7 H446.9V59.1z M584.8,752.1H27.2V39.9h392.5v151.5c0,7.4,6.2,13.6,13.6,13.6h151.5V752.1z M380.8,304.5v234.3 c0,7.4,6.2,13.6,13.6,13.6h51.3c7.4,0,13.6-6.2,13.6-13.6V304.5c0-7.4-6.2-13.6-13.6-13.6h-51.3 C387,291.5,380.8,297.1,380.8,304.5z M408,318.1h24.7v207.7H408V318.1z M332,350.9h-51.3c-7.4,0-13.6,6.2-13.6,13.6v174.9 c0,7.4,6.2,13.6,13.6,13.6H332c7.4,0,13.6-6.2,13.6-13.6V364.5C345.6,357.1,339.4,350.9,332,350.9z M318.4,525.8h-24.1V378.1 h24.1V525.8z M217,408.4h-51.3c-7.4,0-13.6,6.2-13.6,13.6v117.5c0,7.4,6.2,13.6,13.6,13.6H217c7.4,0,13.6-6.2,13.6-13.6V422 C230.6,414.5,225,408.4,217,408.4z M203.4,525.8h-24.1v-90.3h24.1V525.8z"/></g></g></g><g id="Layer_9" display="none"><g id="excel" display="inline"><g><path d="M607.7,181.5L442.6,16.4c-2.5-2.5-6.2-3.7-9.9-3.7H13.6C6.2,12.7,0,18.9,0,26.3v739.3c0,7.4,6.2,13.6,13.6,13.6h584.8 c7.4,0,13.6-6.2,13.6-13.6V191.4C612,187.7,610.1,184,607.7,181.5z M446.9,59.1l118.7,118.7H446.9V59.1z M584.8,752.1H27.2V39.9 h392.5v151.5c0,7.4,6.2,13.6,13.6,13.6h151.5V752.1z M152.1,304.5v234.3c0,7.4,6.2,13.6,13.6,13.6h280.7 c7.4,0,13.6-6.2,13.6-13.6V304.5c0-7.4-6.2-13.6-13.6-13.6H165.7C158.3,290.9,152.1,297.1,152.1,304.5z M319.6,318.1h113.1v51.3 H319.6V318.1z M319.6,396.6h113.1v51.3H319.6V396.6z M319.6,474.5h113.1v51.3H319.6V474.5z M179.3,318.1h113.1v51.3H179.3V318.1z M179.3,396.6h113.1v51.3H179.3V396.6z M179.3,474.5h113.1v51.3H179.3V474.5z"/></g></g></g><g id="Layer_10" display="none"><g id="eps_or_ai_2" display="inline"><g><path d="M611.4,188.3c-0.6-1.9-1.2-3.1-1.9-4.9l0,0c-0.6-0.6-1.2-1.2-1.9-1.9L443.2,16.4c-0.6-0.6-1.2-1.2-1.9-1.9 c-0.6-0.6-1.2-0.6-1.2-0.6c-0.6,0-0.6-0.6-1.2-0.6c0,0-0.6,0-1.2-0.6h-0.6h-0.6c-0.6,0-1.2,0-2.5,0H13.6C6.2,12.7,0,18.9,0,26.3 v739.3c0,7.4,6.2,13.6,13.6,13.6h584.8c7.4,0,13.6-6.2,13.6-13.6V191.4C612,190.1,612,189.5,611.4,188.3z M446.9,59.1 l118.7,118.7H446.9V59.1z M584.8,752.1H27.2V39.9h392.5v151.5c0,7.4,6.2,13.6,13.6,13.6h151.5V752.1z M411.1,377.5h-67.4v-9.9 c0-7.4-6.2-13.6-13.6-13.6h-47c-7.4,0-13.6,6.2-13.6,13.6v9.9h-68c-1.2-6.2-6.8-10.5-13-10.5h-21c-7.4,0-13.6,6.2-13.6,13.6v21 c0,7.4,6.2,13.6,13.6,13.6h21c6.8,0,11.7-4.3,13-10.5h21c-35.9,26-58.7,68-58.7,115c0,7.4,6.2,13.6,13.6,13.6s13.6-6.2,13.6-13.6 c0-49.5,32.1-93.3,77.9-108.8v3.7c0,7.4,6.2,13.6,13.6,13.6h47c7.4,0,13.6-6.2,13.6-13.6v-3.7c46.4,15.5,78.5,58.7,78.5,108.8 c0,7.4,6.2,13.6,13.6,13.6s13.6-6.2,13.6-13.6c0-47-22.9-89-58.1-115h21c1.2,6.2,6.8,10.5,13,10.5h21c7.4,0,13.6-6.2,13.6-13.6 v-21c0-7.4-6.2-13.6-13.6-13.6h-21C417.9,366.9,412.3,371.9,411.1,377.5z M316.5,400.9h-19.8v-19.8h19.8V400.9z"/></g></g></g><g id="Layer_11" display="none"><g id="code" display="inline"><g><path d="M611.4,188.3c-0.6-1.9-1.2-3.1-1.9-4.9c-0.6-0.6-1.2-1.2-1.9-1.9L442.6,16.4c-2.5-2.5-6.2-3.7-9.9-3.7H13.6 C6.2,12.7,0,18.9,0,26.3v739.3c0,7.4,6.2,13.6,13.6,13.6h584.8c7.4,0,13.6-6.2,13.6-13.6V191.4C612,190.1,612,189.5,611.4,188.3z M446.9,59.1l118.7,118.7H446.9V59.1z M584.8,752.1H27.2V39.9h392.5v151.5c0,7.4,6.2,13.6,13.6,13.6h151.5V752.1z M226.9,376.8 c-4.3-6.2-13-8-19.2-3.7l-79.1,53.8c-3.7,2.5-6.2,6.8-6.2,11.1s2.5,8.7,6.2,11.1l79.1,53.8c2.5,1.9,4.9,2.5,7.4,2.5 c4.3,0,8.7-1.9,11.1-6.2c4.3-6.2,2.5-14.8-3.7-19.2l-61.8-42l62.4-42.7C229.3,391.1,231.2,383,226.9,376.8z M385.1,376.8 c-4.3,6.2-2.5,14.8,3.7,19.2l62.4,42l-62.4,42.7c-6.2,4.3-8,13-3.7,19.2c2.5,3.7,6.8,6.2,11.1,6.2c2.5,0,5.6-0.6,7.4-2.5 l79.1-53.8c3.7-2.5,6.2-6.8,6.2-11.1s-2.5-8.7-6.2-11.1l-79.1-53.8C397.5,368.8,389.5,370.7,385.1,376.8z M341.9,346.5 c-6.8-2.5-14.8,0.6-17.3,7.4l-61.8,158.3c-2.5,6.8,0.6,14.8,7.4,17.3c1.9,0.6,3.1,1.2,4.9,1.2c5.6,0,10.5-3.1,12.4-8.7 l61.8-158.3C352.4,357.1,348.7,349.6,341.9,346.5z"/></g></g></g></svg>