<svg xmlns="http://www.w3.org/2000/svg" xmlns:xlink="http://www.w3.org/1999/xlink" id="Layer_1" x="0" y="0" enable-background="new 0 0 50 50" version="1.1" viewBox="0 0 50 50" xml:space="preserve"><defs xmlns="http://www.w3.org/1999/xhtml"><style type="text/css">[hidden]{display:none}svg:not(:root){overflow:hidden}*,::after,::before{box-sizing:border-box}[data-ng-cloak],[ng-cloak],[ng:cloak],[x-ng-cloak]{display:none!important}</style></defs><path fill="#333" d="M25,0C11.2,0,0,11.2,0,25s11.2,25,25,25s25-11.2,25-25S38.8,0,25,0z M25,2c12.7,0,23,10.3,23,23	c0,6.7-2.8,12.7-7.4,16.9c-3.8-2.7-9.5-3.2-10.7-6.3c-0.1-1.6-0.1-2.7-0.1-4.2c0.7-0.4,2-2.8,2.2-4.9c0.6,0,1.5-0.6,1.8-2.8	c0.1-1.2-0.4-1.9-0.8-2.1C34,18.8,36,10.1,29.5,9.2c-0.7-1.2-2.4-1.8-4.6-1.8c-8.9,0.2-9.9,6.7-8,14.2c-0.3,0.2-0.9,0.9-0.8,2.1	c0.3,2.2,1.2,2.8,1.8,2.8c0.2,2.1,1.6,4.5,2.3,4.9c0,1.5,0.1,2.6-0.1,4.2c-1.2,3.2-7,3.6-10.8,6.3C4.8,37.7,2,31.7,2,25	C2,12.3,12.3,2,25,2z"/></svg>