<svg xmlns="http://www.w3.org/2000/svg" xmlns:xlink="http://www.w3.org/1999/xlink" id="Layer_1" x="0" y="0" enable-background="new 0 0 50 50" version="1.1" viewBox="0 0 50 50" xml:space="preserve"><defs xmlns="http://www.w3.org/1999/xhtml"><style type="text/css">[hidden]{display:none}svg:not(:root){overflow:hidden}*,::after,::before{box-sizing:border-box}[data-ng-cloak],[ng-cloak],[ng:cloak],[x-ng-cloak]{display:none!important}</style></defs><path fill="#333" d="M19.8,13.1c-0.2,0-0.4,0.1-0.6,0.3L8.3,24.3L7.7,25l0.7,0.7l10.9,10.9c0.3,0.4,1,0.5,1.4,0.2s0.5-1,0.2-1.4	c0-0.1-0.1-0.1-0.2-0.2L11.5,26H41c0.6,0,1-0.4,1-1c0-0.6-0.4-1-1-1c0,0,0,0,0,0H11.5l9.2-9.2c0.4-0.4,0.4-1,0.1-1.4	C20.5,13.2,20.1,13,19.8,13.1z"/></svg>