<?xml version="1.0" encoding="utf-8"?>
<!-- Generator: Adobe Illustrator 18.0.0, SVG Export Plug-In . SVG Version: 6.00 Build 0)  -->
<!DOCTYPE svg PUBLIC "-//W3C//DTD SVG 1.1//EN" "http://www.w3.org/Graphics/SVG/1.1/DTD/svg11.dtd">
<svg version="1.1" id="Layer_1" xmlns:sketch="http://www.bohemiancoding.com/sketch/ns"
	 xmlns="http://www.w3.org/2000/svg" xmlns:xlink="http://www.w3.org/1999/xlink" x="0px" y="0px" viewBox="0 0 500 500"
	 enable-background="new 0 0 500 500" xml:space="preserve">
<g id="Page-1" sketch:type="MSPage">
	<g id="CryptoSync" sketch:type="MSArtboardGroup">
		<g id="logo" sketch:type="MSLayerGroup">
			
				<linearGradient id="Rectangle-8_1_" gradientUnits="userSpaceOnUse" x1="262.2441" y1="-261.2559" x2="262.2441" y2="-262.2559" gradientTransform="matrix(500 0 0 500 -130872.0703 131127.9375)">
				<stop  offset="0" style="stop-color:#F46B45"/>
				<stop  offset="1" style="stop-color:#EEA849"/>
			</linearGradient>
			<path id="Rectangle-8" sketch:type="MSShapeGroup" fill="url(#Rectangle-8_1_)" d="M250,0L250,0c138.1,0,250,111.9,250,250l0,0
				c0,138.1-111.9,250-250,250l0,0C111.9,500,0,388.1,0,250l0,0C0,111.9,111.9,0,250,0z"/>
			<g id="Group-2">
			</g>
		</g>
	</g>
</g>
<title>CryptoSync</title>
<desc>Created with Sketch.</desc>
<path fill="#333333" d="M362.6,240c-1,0-2.1,0-3.1,0.1c0.4-3.3,0.6-6.6,0.6-10.1c0-46.8-38.1-84.8-85.1-84.8
	c-37.5,0-69.3,24.2-80.6,57.8c-7.3-7.9-17.8-12.8-29.4-12.8c-22.1,0-40,17.9-40,39.9c0,0.8,0,1.7,0.1,2.4
	C99,240,79.9,264,79.9,292.4c0,34.4,28,62.4,62.5,62.4h143.4h39.6h37.1c31.8,0,57.5-25.7,57.5-57.4C420.1,265.7,394.3,240,362.6,240
	z M230,222.7c0,0,0-0.1,0-0.1c0.1-8,6.7-14.5,14.7-14.6h27.3c8.1,0,14.6,6.5,14.8,14.6c0,0,0,0.1,0,0.1V241c0,2.6-2.1,4.7-4.7,4.7
	h-2.9c-2.6,0-4.7-2.1-4.7-4.7v-16.1c-0.4-2.1-2.3-3.8-4.6-3.8h-22.9c-2.6,0-4.7,2.1-4.7,4.6V241c0,2.6-2.1,4.7-4.7,4.7h-2.9
	c-2.6,0-4.7-2.1-4.7-4.7V222.7z M302.6,315.9c0,2.1-1.8,3.9-3.9,3.9h-80.9c-2.1,0-3.9-1.8-3.9-3.9v-4.5c0-2.1,1.8-3.9,3.9-3.9h80.9
	c2.1,0,3.9,1.8,3.9,3.9V315.9z M302.6,290.9c0,2.1-1.8,3.9-3.9,3.9h-80.9c-2.1,0-3.9-1.8-3.9-3.9v-4.5c0-2.1,1.8-3.9,3.9-3.9h80.9
	c2.1,0,3.9,1.8,3.9,3.9V290.9z M302.6,266c0,2.1-1.8,3.9-3.9,3.9h-80.9c-2.1,0-3.9-1.8-3.9-3.9v-4.5c0-2.1,1.8-3.9,3.9-3.9h80.9
	c2.1,0,3.9,1.8,3.9,3.9V266z"/>
</svg>
