<?xml version="1.0" encoding="utf-8"?>
<!-- Generator: Adobe Illustrator 18.0.0, SVG Export Plug-In . SVG Version: 6.00 Build 0)  -->
<!DOCTYPE svg PUBLIC "-//W3C//DTD SVG 1.1//EN" "http://www.w3.org/Graphics/SVG/1.1/DTD/svg11.dtd">
<svg version="1.1" id="Layer_1" xmlns="http://www.w3.org/2000/svg" xmlns:xlink="http://www.w3.org/1999/xlink" x="0px" y="0px"
	 viewBox="0 0 1024 1024" enable-background="new 0 0 1024 1024" xml:space="preserve">
<title>CryptoSync Vault icon</title>
<g>
	<circle display="none" fill="#111111" cx="511.3" cy="910.1" r="37.5"/>
	<circle display="none" fill="#111111" cx="226.4" cy="226.4" r="37.5"/>
	<circle display="none" fill="#111111" cx="112.4" cy="511.3" r="37.5"/>
	<circle display="none" fill="#111111" cx="226.4" cy="796.1" r="37.5"/>
	<circle display="none" fill="#111111" cx="796.1" cy="796.1" r="37.5"/>
	<circle display="none" fill="#111111" cx="511.3" cy="112.4" r="37.5"/>
	<circle display="none" fill="#111111" cx="910.1" cy="511.3" r="37.5"/>
	<circle display="none" fill="#111111" cx="796.1" cy="226.4" r="37.5"/>
</g>
<path fill="#070707" d="M512,0C229.2,0,0,229.2,0,512s229.2,512,512,512s512-229.2,512-512S794.8,0,512,0z M112.4,548.7
	C91.7,548.7,75,532,75,511.3s16.8-37.5,37.5-37.5c20.7,0,37.5,16.8,37.5,37.5S133.1,548.7,112.4,548.7z M511.3,75
	c20.7,0,37.5,16.8,37.5,37.5s-16.8,37.5-37.5,37.5s-37.5-16.8-37.5-37.5S490.5,75,511.3,75z M226.4,188.9
	c20.7,0,37.5,16.8,37.5,37.5s-16.8,37.5-37.5,37.5s-37.5-16.8-37.5-37.5S205.7,188.9,226.4,188.9z M226.4,833.6
	c-20.7,0-37.5-16.8-37.5-37.5s16.8-37.5,37.5-37.5s37.5,16.8,37.5,37.5S247.1,833.6,226.4,833.6z M511.3,947.5
	c-20.7,0-37.5-16.8-37.5-37.5c0-20.7,16.8-37.5,37.5-37.5s37.5,16.8,37.5,37.5C548.7,930.8,532,947.5,511.3,947.5z M512,814.9
	c-167.3,0-302.9-135.6-302.9-302.9S344.7,209.1,512,209.1S814.9,344.7,814.9,512S679.3,814.9,512,814.9z M796.1,833.6
	c-20.7,0-37.5-16.8-37.5-37.5s16.8-37.5,37.5-37.5s37.5,16.8,37.5,37.5S816.8,833.6,796.1,833.6z M796.1,263.9
	c-20.7,0-37.5-16.8-37.5-37.5s16.8-37.5,37.5-37.5s37.5,16.8,37.5,37.5S816.8,263.9,796.1,263.9z M910.1,548.7
	c-20.7,0-37.5-16.8-37.5-37.5s16.8-37.5,37.5-37.5c20.7,0,37.5,16.8,37.5,37.5S930.8,548.7,910.1,548.7z"/>
<path d="M620.6,671.9H403.4l41.4-127c-25.2-19.8-41.4-50.4-41.4-84.8c0-59.6,48.6-108,108.6-108c60,0,108.6,48.3,108.6,108
	c0,34.4-16.2,65-41.4,84.8L620.6,671.9z"/>
</svg>
