<?xml version="1.0" encoding="utf-8"?>
<!-- Generator: Adobe Illustrator 18.0.0, SVG Export Plug-In . SVG Version: 6.00 Build 0)  -->
<!DOCTYPE svg PUBLIC "-//W3C//DTD SVG 1.1//EN" "http://www.w3.org/Graphics/SVG/1.1/DTD/svg11.dtd">
<svg version="1.1" id="Layer_1" xmlns="http://www.w3.org/2000/svg" xmlns:xlink="http://www.w3.org/1999/xlink" x="0px" y="0px"
	 viewBox="0 0 500 500" enable-background="new 0 0 500 500" xml:space="preserve">
<title>CryptoSync Vault icon</title>
<g>
	<circle display="none" fill="#111111" cx="249.7" cy="444.4" r="18.3"/>
	<circle display="none" fill="#111111" cx="110.5" cy="110.5" r="18.3"/>
	<circle display="none" fill="#111111" cx="54.9" cy="249.7" r="18.3"/>
	<circle display="none" fill="#111111" cx="110.5" cy="388.7" r="18.3"/>
	<circle display="none" fill="#111111" cx="388.7" cy="388.7" r="18.3"/>
	<circle display="none" fill="#111111" cx="249.7" cy="54.9" r="18.3"/>
	<circle display="none" fill="#111111" cx="444.4" cy="249.7" r="18.3"/>
	<circle display="none" fill="#111111" cx="388.7" cy="110.5" r="18.3"/>
</g>
<path fill="#333333" d="M250,0C111.9,0,0,111.9,0,250s111.9,250,250,250s250-111.9,250-250S388.1,0,250,0z M54.9,267.9
	c-10.1,0-18.3-8.2-18.3-18.3c0-10.1,8.2-18.3,18.3-18.3s18.3,8.2,18.3,18.3C73.2,259.8,65,267.9,54.9,267.9z M249.7,36.6
	c10.1,0,18.3,8.2,18.3,18.3s-8.2,18.3-18.3,18.3c-10.1,0-18.3-8.2-18.3-18.3S239.5,36.6,249.7,36.6z M110.5,92.2
	c10.1,0,18.3,8.2,18.3,18.3s-8.2,18.3-18.3,18.3s-18.3-8.2-18.3-18.3S100.4,92.2,110.5,92.2z M110.5,407c-10.1,0-18.3-8.2-18.3-18.3
	c0-10.1,8.2-18.3,18.3-18.3s18.3,8.2,18.3,18.3C128.9,398.8,120.7,407,110.5,407z M249.7,462.6c-10.1,0-18.3-8.2-18.3-18.3
	s8.2-18.3,18.3-18.3c10.1,0,18.3,8.2,18.3,18.3C267.9,454.5,259.8,462.6,249.7,462.6z M250,397.9c-81.7,0-147.9-66.2-147.9-147.9
	S168.3,102.1,250,102.1S397.9,168.3,397.9,250S331.7,397.9,250,397.9z M388.7,407c-10.1,0-18.3-8.2-18.3-18.3
	c0-10.1,8.2-18.3,18.3-18.3c10.1,0,18.3,8.2,18.3,18.3C407,398.8,398.8,407,388.7,407z M388.7,128.9c-10.1,0-18.3-8.2-18.3-18.3
	s8.2-18.3,18.3-18.3c10.1,0,18.3,8.2,18.3,18.3S398.8,128.9,388.7,128.9z M444.4,267.9c-10.1,0-18.3-8.2-18.3-18.3
	s8.2-18.3,18.3-18.3c10.1,0,18.3,8.2,18.3,18.3S454.5,267.9,444.4,267.9z"/>
<path fill="#333333" d="M303,328.1H197l20.2-62c-12.3-9.7-20.2-24.6-20.2-41.4c0-29.1,23.7-52.7,53-52.7s53,23.6,53,52.7
	c0,16.8-7.9,31.7-20.2,41.4L303,328.1z"/>
</svg>
