<?xml version="1.0" encoding="utf-8"?>
<!-- Generator: Adobe Illustrator 18.0.0, SVG Export Plug-In . SVG Version: 6.00 Build 0)  -->
<!DOCTYPE svg PUBLIC "-//W3C//DTD SVG 1.1//EN" "http://www.w3.org/Graphics/SVG/1.1/DTD/svg11.dtd">
<svg version="1.1" id="Layer_1" xmlns="http://www.w3.org/2000/svg" xmlns:xlink="http://www.w3.org/1999/xlink" x="0px" y="0px"
	 viewBox="0 0 500 500" enable-background="new 0 0 500 500" xml:space="preserve">
<path fill="#333333" d="M250,7.9C116.3,7.9,7.9,116.3,7.9,250S116.3,492.1,250,492.1S492.1,383.7,492.1,250S383.7,7.9,250,7.9z
	 M250,472.8c-123.1,0-222.8-99.8-222.8-222.8S126.9,27.2,250,27.2S472.8,126.9,472.8,250S373.1,472.8,250,472.8z"/>
<path id="Path" fill="#333333" d="M143.8,244.4c0-5.3,4.2-9.7,9.3-9.7h193.7c5.2,0,9.3,4.3,9.3,9.7v11.2
	c0,5.3-4.2,9.7-9.3,9.7H153.1c-5.2,0-9.3-4.3-9.3-9.7V244.4L143.8,244.4z"/>
<path id="Path_1_" fill="#333333" d="M143.8,305.4c0-5.3,4.2-9.7,9.3-9.7h193.7c5.2,0,9.3,4.3,9.3,9.7
	v11.2c0,5.3-4.2,9.7-9.3,9.7H153.1c-5.2,0-9.3-4.3-9.3-9.7V305.4L143.8,305.4z"/>
<path id="Path_2_" fill="#333333" d="M143.8,364.5c0-5.3,4.2-9.7,9.3-9.7h193.7c5.2,0,9.3,4.3,9.3,9.7
	v11.2c0,5.3-4.2,9.7-9.3,9.7H153.1c-5.2,0-9.3-4.3-9.3-9.7V364.5L143.8,364.5z"/>
<path id="Path_3_" fill="#333333" d="M326.2,142.4c-2.7-16.9-17.3-29.7-34.9-29.7h-81.7
	c-18.1,0-32.8,13.5-35,30.9c-0.2,0.7-0.3,1.5-0.3,2.3v47.9c0,4.9,4,9.2,9,9.2h12.5c4.7,0,9-4.1,9-9.2v-30.7v-10.7
	c0-5.1,3.9-9.2,9.1-9.2h73.3c5,0,9.1,3.9,9.1,9.2v15.4v25.9c0,4.9,4,9.2,9,9.2h12.5c4.7,0,9-4.1,9-9.2v-47.9
	C326.9,144.7,326.7,143.5,326.2,142.4L326.2,142.4z"/>
</svg>
