<svg xmlns="http://www.w3.org/2000/svg" xmlns:xlink="http://www.w3.org/1999/xlink" id="Layer_1" x="0" y="0" enable-background="new 0 0 50 50" version="1.1" viewBox="0 0 50 50" xml:space="preserve"><defs xmlns="http://www.w3.org/1999/xhtml"><style type="text/css">[hidden]{display:none}svg:not(:root){overflow:hidden}*,::after,::before{box-sizing:border-box}[data-ng-cloak],[ng-cloak],[ng:cloak],[x-ng-cloak]{display:none!important}</style></defs><path fill="#333" d="M3,3C1.3,3,0,4.3,0,6v10c0-1.7,1.3-3,3-3h44c1.7,0,3,1.3,3,3v-6c0-1.7-1.3-3-3-3H18c-0.3-0.1-0.8-1-1.2-1.5	C16.1,4.3,15.3,3,14,3H3z M3,15c-3,0-3,3-3,3v26c0,1.7,1.3,3,3,3h44c1.7,0,3-1.3,3-3V18c0,0,0-3-3-3H3z"/></svg>