<svg xmlns="http://www.w3.org/2000/svg" xmlns:xlink="http://www.w3.org/1999/xlink" id="Layer_1" x="0" y="0" enable-background="new 0 0 26 26" version="1.1" viewBox="0 0 26 26" xml:space="preserve"><defs xmlns="http://www.w3.org/1999/xhtml"><style type="text/css">[hidden]{display:none}svg:not(:root){overflow:hidden}*,::after,::before{box-sizing:border-box}[data-ng-cloak],[ng-cloak],[ng:cloak],[x-ng-cloak]{display:none!important}</style></defs><path fill="#333" d="M13,1.2C6.5,1.2,1.2,6.5,1.2,13S6.5,24.8,13,24.8S24.8,19.5,24.8,13S19.5,1.2,13,1.2z M15.5,19.5	c-0.6,0.2-1.1,0.4-1.5,0.5c-0.4,0.1-0.8,0.2-1.3,0.2c-0.7,0-1.3-0.2-1.7-0.5s-0.6-0.8-0.6-1.4c0-0.2,0-0.4,0-0.7	c0-0.2,0.1-0.5,0.1-0.8l0.8-2.7c0.1-0.3,0.1-0.5,0.2-0.7c0-0.2,0.1-0.4,0.1-0.6c0-0.3-0.1-0.6-0.2-0.7c-0.1-0.1-0.4-0.2-0.8-0.2	c-0.2,0-0.4,0-0.6,0.1c-0.2,0.1-0.4,0.1-0.5,0.2l0.2-0.8c0.5-0.2,1-0.4,1.4-0.5c0.5-0.1,0.9-0.2,1.3-0.2c0.7,0,1.3,0.2,1.7,0.5	c0.4,0.4,0.6,0.8,0.6,1.4c0,0.1,0,0.3,0,0.6c0,0.3-0.1,0.6-0.2,0.8l-0.8,2.7c-0.1,0.2-0.1,0.5-0.2,0.7c0,0.3-0.1,0.5-0.1,0.6	c0,0.4,0.1,0.6,0.2,0.7c0.2,0.1,0.4,0.2,0.8,0.2c0.2,0,0.4,0,0.6-0.1c0.2-0.1,0.4-0.1,0.5-0.2L15.5,19.5z M15.3,8.6	c-0.4,0.3-0.8,0.5-1.3,0.5c-0.5,0-0.9-0.2-1.3-0.5c-0.4-0.3-0.5-0.7-0.5-1.2c0-0.5,0.2-0.9,0.5-1.2c0.4-0.3,0.8-0.5,1.3-0.5	c0.5,0,0.9,0.2,1.3,0.5c0.4,0.3,0.5,0.7,0.5,1.2C15.9,7.9,15.7,8.3,15.3,8.6z"/></svg>