<?xml version="1.0" encoding="utf-8"?>
<!-- Generator: Adobe Illustrator 18.0.0, SVG Export Plug-In . SVG Version: 6.00 Build 0)  -->
<!DOCTYPE svg PUBLIC "-//W3C//DTD SVG 1.1//EN" "http://www.w3.org/Graphics/SVG/1.1/DTD/svg11.dtd">
<svg version="1.1" id="Layer_1" xmlns="http://www.w3.org/2000/svg" xmlns:xlink="http://www.w3.org/1999/xlink" x="0px" y="0px"
	 viewBox="0 0 32 32" enable-background="new 0 0 32 32" xml:space="preserve">
<path fill="#333333" d="M29.4,8.7c0.3-0.6,1.1-3.2-0.3-6.6c0,0-2.1-0.7-6.9,2.6C20.3,4.1,18.1,4,16,4s-4.3,0.1-6.3,0.6
	C5,1.4,2.9,2.1,2.9,2.1C1.5,5.5,2.3,8,2.6,8.7C1,10.4,0,12.7,0,15.4C0,25.7,6.7,28,16,28c9.3,0,16-2.3,16-12.6
	C32,12.7,31,10.4,29.4,8.7L29.4,8.7z M16,26c-6.6,0-12-0.3-12-6.7c0-1.5,0.8-3,2-4.1c2.1-2,5.8-0.9,9.9-0.9c4.1,0,7.8-1,9.9,0.9
	c1.3,1.2,2,2.6,2,4.1C28,25.7,22.6,26,16,26z M11,16c-1.3,0-2.4,1.6-2.4,3.6s1.1,3.6,2.4,3.6c1.3,0,2.4-1.6,2.4-3.6S12.3,16,11,16z
	 M21,16c-1.3,0-2.4,1.6-2.4,3.6s1.1,3.6,2.4,3.6s2.4-1.6,2.4-3.6C23.4,17.6,22.4,16,21,16z"/>
</svg>
