<?xml version="1.0" encoding="utf-8"?>
<!-- Generator: Adobe Illustrator 18.0.0, SVG Export Plug-In . SVG Version: 6.00 Build 0)  -->
<!DOCTYPE svg PUBLIC "-//W3C//DTD SVG 1.1//EN" "http://www.w3.org/Graphics/SVG/1.1/DTD/svg11.dtd">
<svg version="1.1" id="Layer_1" xmlns="http://www.w3.org/2000/svg" xmlns:xlink="http://www.w3.org/1999/xlink" x="0px" y="0px"
	 viewBox="0 0 500 500" enable-background="new 0 0 500 500" xml:space="preserve">
<path fill="#333333" d="M250,7.9C116.3,7.9,7.9,116.3,7.9,250S116.3,492.1,250,492.1S492.1,383.7,492.1,250S383.7,7.9,250,7.9z
	 M250,472.8c-123.1,0-222.8-99.8-222.8-222.8S126.9,27.2,250,27.2S472.8,126.9,472.8,250S373.1,472.8,250,472.8z"/>
<path fill="#333333" d="M364.1,104.4c-0.3,0.1-0.6,0.1-1,0.2c-3.6,0.8-6.1,4-6,7.7v51.2c-1.6-2-3.1-3.9-4.8-5.7
	c-25.2-27.9-61.8-45.5-102.4-45.5c-76,0-137.8,61.8-137.8,137.8c-0.1,4.2,3.3,7.7,7.5,7.8c4.2,0.1,7.7-3.3,7.8-7.5
	c0-0.1,0-0.1,0-0.2c0-67.7,54.7-122.5,122.5-122.5c36.2,0,68.5,15.6,90.9,40.4c1.6,1.8,3,3.6,4.5,5.5h-49.5
	c-4.2-0.1-7.7,3.3-7.8,7.5c-0.1,4.2,3.3,7.7,7.5,7.8c0.1,0,0.1,0,0.2,0h68.9h7.7v-7.7v-68.9c0.2-4.2-3.2-7.8-7.4-7.9
	C364.8,104.4,364.4,104.4,364.1,104.4z M379.4,242.2c-0.3,0.1-0.6,0.1-1,0.2c-3.6,0.8-6.1,4-6,7.7c0,67.7-54.7,122.5-122.5,122.5
	c-36.2,0-68.5-15.6-90.9-40.4c-1.6-1.8-3-3.6-4.5-5.5h49.5c4.2,0.1,7.7-3.3,7.8-7.5c0.1-4.2-3.3-7.7-7.5-7.8c-0.1,0-0.1,0-0.2,0
	h-68.9h-7.7v7.7v68.9c-0.1,4.2,3.3,7.7,7.5,7.8s7.7-3.3,7.8-7.5c0-0.1,0-0.1,0-0.2v-51.2c1.6,2,3.1,3.9,4.8,5.7
	c25.2,27.9,61.8,45.5,102.4,45.5c76,0,137.8-61.8,137.8-137.8c0.2-4.2-3.2-7.8-7.4-7.9C380.1,242.1,379.7,242.2,379.4,242.2z"/>
</svg>
