<svg xmlns="http://www.w3.org/2000/svg" xmlns:xlink="http://www.w3.org/1999/xlink" id="Layer_1" x="0" y="0" enable-background="new 0 0 50 50" version="1.1" viewBox="0 0 50 50" xml:space="preserve"><defs xmlns="http://www.w3.org/1999/xhtml"><style type="text/css">[hidden]{display:none}svg:not(:root){overflow:hidden}*,::after,::before{box-sizing:border-box}[data-ng-cloak],[ng-cloak],[ng:cloak],[x-ng-cloak]{display:none!important}</style></defs><path fill="#333" d="M39.9,6c0,0-0.1,0-0.1,0C39.3,6.1,39,6.5,39,7v6.7c-0.2-0.3-0.4-0.5-0.6-0.8C35.1,9.3,30.3,7,25,7	C15.1,7,7,15.1,7,25c0,0.6,0.4,1,1,1s1-0.4,1-1c0,0,0,0,0,0c0-8.8,7.2-16,16-16c4.7,0,8.9,2,11.9,5.3c0.2,0.2,0.4,0.5,0.6,0.7H31	c-0.6,0-1,0.4-1,1c0,0.6,0.4,1,1,1c0,0,0,0,0,0h9h1v-1V7c0-0.6-0.4-1-1-1C40,6,39.9,6,39.9,6z M41.9,24c0,0-0.1,0-0.1,0	c-0.5,0.1-0.8,0.5-0.8,1c0,8.8-7.2,16-16,16c-4.7,0-8.9-2-11.9-5.3c-0.2-0.2-0.4-0.5-0.6-0.7H19c0.6,0,1-0.4,1-1c0-0.6-0.4-1-1-1	c0,0,0,0,0,0h-9H9v1v9c0,0.6,0.4,1,1,1c0.6,0,1-0.4,1-1c0,0,0,0,0,0v-6.7c0.2,0.3,0.4,0.5,0.6,0.8C14.9,40.7,19.7,43,25,43	c9.9,0,18-8.1,18-18c0-0.6-0.4-1-1-1C42,24,41.9,24,41.9,24z"/></svg>