<svg xmlns="http://www.w3.org/2000/svg" xmlns:xlink="http://www.w3.org/1999/xlink" id="Layer_1" x="0" y="0" enable-background="new 0 99.7 612 592.7" version="1.1" viewBox="0 99.7 612 592.7" xml:space="preserve"><path fill="#333" d="M306,99.7C142.4,99.7,9.7,232.4,9.7,396S142.4,692.3,306,692.3S602.3,559.6,602.3,396S469.6,99.7,306,99.7z M306,668.7C155.3,668.7,33.3,546.6,33.3,396s122-272.7,272.7-272.7s272.7,122,272.7,272.7S456.7,668.7,306,668.7z"/><path fill="#333" d="M445.7,217.8c-0.4,0.1-0.7,0.1-1.2,0.2c-4.4,1-7.5,4.9-7.3,9.4v62.7c-2-2.4-3.8-4.8-5.9-7	c-30.8-34.1-75.6-55.7-125.3-55.7c-93,0-168.7,75.6-168.7,168.7c-0.1,5.1,4,9.4,9.2,9.5c5.1,0.1,9.4-4,9.5-9.2c0-0.1,0-0.1,0-0.2	c0-82.9,67-149.9,149.9-149.9c44.3,0,83.8,19.1,111.3,49.4c2,2.2,3.7,4.4,5.5,6.7h-60.6c-5.1-0.1-9.4,4-9.5,9.2	c-0.1,5.1,4,9.4,9.2,9.5c0.1,0,0.1,0,0.2,0h84.3h9.4v-9.4v-84.3c0.2-5.1-3.9-9.5-9.1-9.7C446.5,217.8,446,217.8,445.7,217.8z M464.4,386.5c-0.4,0.1-0.7,0.1-1.2,0.2c-4.4,1-7.5,4.9-7.3,9.4c0,82.9-67,149.9-149.9,149.9c-44.3,0-83.8-19.1-111.3-49.4	c-2-2.2-3.7-4.4-5.5-6.7h60.6c5.1,0.1,9.4-4,9.5-9.2s-4-9.4-9.2-9.5c-0.1,0-0.1,0-0.2,0h-84.3h-9.4v9.4v84.3c-0.1,5.1,4,9.4,9.2,9.5	c5.1,0.1,9.4-4,9.5-9.2c0-0.1,0-0.1,0-0.2v-62.7c2,2.4,3.8,4.8,5.9,7C211.5,543.5,256.3,565,306,565c93,0,168.7-75.6,168.7-168.7	c0.2-5.1-3.9-9.5-9.1-9.7C465.2,386.3,464.8,386.5,464.4,386.5z"/></svg>