<?xml version="1.0" encoding="utf-8"?>
<!-- Generator: Adobe Illustrator 18.0.0, SVG Export Plug-In . SVG Version: 6.00 Build 0)  -->
<!DOCTYPE svg PUBLIC "-//W3C//DTD SVG 1.1//EN" "http://www.w3.org/Graphics/SVG/1.1/DTD/svg11.dtd">
<svg version="1.1" id="Layer_1" xmlns="http://www.w3.org/2000/svg" xmlns:xlink="http://www.w3.org/1999/xlink" x="0px" y="0px"
	 viewBox="0 0 24 32" enable-background="new 0 0 24 32" xml:space="preserve">
<path fill="#333333" d="M20,4h-4c0-1.1-0.9-2-2-2H8C6.9,2,6,2.9,6,4H2C0.9,4,0,4.9,0,6v2c0,1.1,0.9,2,2,2v18c0,1.1,0.9,2,2,2h14
	c1.1,0,2-0.9,2-2V10c1.1,0,2-0.9,2-2V6C22,4.9,21.1,4,20,4z M18,28H4V10h2v16h2V10h2v16h2V10h2v16h2V10h2V28z M20,8H2V6h18V8z"/>
</svg>
