<svg xmlns="http://www.w3.org/2000/svg" xmlns:xlink="http://www.w3.org/1999/xlink" id="Layer_1" x="0" y="0" enable-background="new 0 0 612 792" version="1.1" viewBox="0 0 612 792" xml:space="preserve"><defs xmlns="http://www.w3.org/1999/xhtml"><style type="text/css">[hidden]{display:none}svg:not(:root){overflow:hidden}*,::after,::before{box-sizing:border-box}[data-ng-cloak],[ng-cloak],[ng:cloak],[x-ng-cloak]{display:none!important}</style></defs><path fill="#FFF" d="M306,140.6c-168.9,0-306,137.1-306,306s137.1,306,306,306s306-137.1,306-306S474.9,140.6,306,140.6z"/><g><path fill="#333" d="M191.9,290.9c0-1.2,0.2-2.4,0.5-3.4c3.4-26.2,25.4-46.5,52.8-46.5h123.1c26.5,0,48.5,19.3,52.6,44.8 c0.7,1.5,1,3.4,0.8,4.9V363c0,7.8-6.4,13.9-13.5,13.9h-18.9c-7.4,0-13.5-6.6-13.5-13.9v-39.1v-23.2c0-7.9-6.1-13.9-13.7-13.9H251.6 c-7.8,0-13.7,6.3-13.7,13.9v16.1v46.3c0,7.8-6.4,13.9-13.5,13.9h-18.8c-7.4,0-13.5-6.6-13.5-13.9v-72.2H191.9z"/><path fill="#333" d="M465.9,637.4c0,7.9-6.3,14.7-14,14.7H160c-7.9,0-14-6.6-14-14.7v-16.9c0-7.9,6.3-14.7,14-14.7h292 c7.9,0,14,6.6,14,14.7L465.9,637.4L465.9,637.4z"/><path fill="#333" d="M465.9,548.3c0,7.9-6.3,14.7-14,14.7H160c-7.9,0-14-6.6-14-14.7v-16.9c0-7.9,6.3-14.7,14-14.7h292 c7.9,0,14,6.6,14,14.7L465.9,548.3L465.9,548.3z"/><path fill="#333" d="M465.9,456.3c0,7.9-6.3,14.7-14,14.7H160c-7.9,0-14-6.6-14-14.7v-16.9c0-7.9,6.3-14.7,14-14.7h292 c7.9,0,14,6.6,14,14.7L465.9,456.3L465.9,456.3z"/></g></svg>