<svg xmlns="http://www.w3.org/2000/svg" xmlns:xlink="http://www.w3.org/1999/xlink" id="Layer_1" x="0" y="0" enable-background="new 0 90 612 612" version="1.1" viewBox="0 90 612 612" xml:space="preserve"><defs xmlns="http://www.w3.org/1999/xhtml"><style type="text/css">[hidden]{display:none}svg:not(:root){overflow:hidden}*,::after,::before{box-sizing:border-box}[data-ng-cloak],[ng-cloak],[ng:cloak],[x-ng-cloak]{display:none!important}</style></defs><path fill="#333" d="M306,90C137.1,90,0,227.1,0,396s137.1,306,306,306s306-137.1,306-306S474.9,90,306,90z M238.6,304	c0-0.7,0.1-1.4,0.3-2c2-15.5,15-27.5,31.2-27.5h72.8c15.7,0,28.7,11.4,31.1,26.5c0.4,0.9,0.6,2,0.5,2.9v42.7c0,4.6-3.8,8.2-8,8.2	h-11.2c-4.4,0-8-3.9-8-8.2v-23.1v-13.7c0-4.7-3.6-8.2-8.1-8.2h-65.3c-4.6,0-8.1,3.7-8.1,8.2v9.5v27.4c0,4.6-3.8,8.2-8,8.2h-11.1	c-4.4,0-8-3.9-8-8.2V304H238.6z M400.6,508.9c0,4.7-3.7,8.7-8.3,8.7H219.7c-4.7,0-8.3-3.9-8.3-8.7v-10c0-4.7,3.7-8.7,8.3-8.7h172.7	c4.7,0,8.3,3.9,8.3,8.7L400.6,508.9L400.6,508.9z M400.6,456.2c0,4.7-3.7,8.7-8.3,8.7H219.7c-4.7,0-8.3-3.9-8.3-8.7v-10	c0-4.7,3.7-8.7,8.3-8.7h172.7c4.7,0,8.3,3.9,8.3,8.7L400.6,456.2L400.6,456.2z M400.6,401.8c0,4.7-3.7,8.7-8.3,8.7H219.7	c-4.7,0-8.3-3.9-8.3-8.7v-10c0-4.7,3.7-8.7,8.3-8.7h172.7c4.7,0,8.3,3.9,8.3,8.7L400.6,401.8L400.6,401.8z"/></svg>