<svg xmlns="http://www.w3.org/2000/svg" xmlns:xlink="http://www.w3.org/1999/xlink" id="Layer_1" x="0" y="0" enable-background="new 0 90 612 612" version="1.1" viewBox="0 90 612 612" xml:space="preserve"><defs xmlns="http://www.w3.org/1999/xhtml"><style type="text/css">[hidden]{display:none}svg:not(:root){overflow:hidden}*,::after,::before{box-sizing:border-box}[data-ng-cloak],[ng-cloak],[ng:cloak],[x-ng-cloak]{display:none!important}</style></defs><path fill="#333" d="M306,90C137.1,90,0,227.1,0,396s137.1,306,306,306s306-137.1,306-306S474.9,90,306,90z M424.7,497.6	c4.9,4.9,4.9,12.2,0,17.1c-2.4,2.4-4.9,3.7-8.6,3.7c-3.7,0-6.1-1.2-8.6-3.7L306,413.1L204.4,514.7c-2.4,2.4-4.9,3.7-8.6,3.7	s-6.1-1.2-8.6-3.7c-4.9-4.9-4.9-12.2,0-17.1L288.9,396L187.3,294.4c-4.9-4.9-4.9-12.2,0-17.1s12.2-4.9,17.1,0L306,378.9l101.6-101.6	c4.9-4.9,12.2-4.9,17.1,0s4.9,12.2,0,17.1L323.1,396L424.7,497.6z"/></svg>