<svg xmlns="http://www.w3.org/2000/svg" xmlns:xlink="http://www.w3.org/1999/xlink" id="Layer_1" x="0" y="0" enable-background="new 0 180 612 612" version="1.1" viewBox="0 180 612 612" xml:space="preserve"><defs xmlns="http://www.w3.org/1999/xhtml"><style type="text/css">[hidden]{display:none}svg:not(:root){overflow:hidden}*,::after,::before{box-sizing:border-box}[data-ng-cloak],[ng-cloak],[ng:cloak],[x-ng-cloak]{display:none!important}</style></defs><path fill="#333" d="M306,180C137.1,180,0,317.1,0,486s137.1,306,306,306s306-137.1,306-306S474.9,180,306,180z M162.7,494.4	c-5.1,0-8.4-3.4-8.4-8.4c0-83.5,68.3-151.8,151.8-151.8c44.7,0,85.2,19.4,113,49.7c1.7,2.5,3.4,4.2,5.1,6.7v-56.5	c0-4.2,2.5-7.6,6.7-8.4h0.8h0.8c5.1,0,8.4,3.4,8.4,8.4V410v8.4h-8.4h-75.9c-5.1,0-8.4-3.4-8.4-8.4s3.4-8.4,8.4-8.4h54.8	c-1.7-1.7-3.4-4.2-5.1-5.9C381,368,345.6,351.1,306,351.1c-74.2,0-134.9,60.7-134.9,134.9C171.1,491.1,167.7,494.4,162.7,494.4z M306,637.8c-44.7,0-85.2-19.4-113-49.7c-1.7-2.5-3.4-4.2-5.1-6.7v56.5c0,5.1-3.4,8.4-8.4,8.4c-5.1,0-8.4-3.4-8.4-8.4V562v-8.4h8.4	h75.9c5.1,0,8.4,3.4,8.4,8.4c0,5.1-3.4,8.4-8.4,8.4h-54.8c1.7,1.7,3.4,4.2,5.1,5.9C231,604,266.4,620.9,306,620.9	c74.2,0,134.9-60.7,134.9-134.9c0-4.2,2.5-7.6,6.7-8.4h0.8h0.8c5.1,0,8.4,3.4,8.4,8.4C457.8,569.5,389.5,637.8,306,637.8z"/></svg>