<svg xmlns="http://www.w3.org/2000/svg" xmlns:xlink="http://www.w3.org/1999/xlink" id="Layer_1" x="0" y="0" enable-background="new 0 177.9 612 612" version="1.1" viewBox="0 177.9 612 612" xml:space="preserve"><defs xmlns="http://www.w3.org/1999/xhtml"><style type="text/css">[hidden]{display:none}svg:not(:root){overflow:hidden}*,::after,::before{box-sizing:border-box}[data-ng-cloak],[ng-cloak],[ng:cloak],[x-ng-cloak]{display:none!important}</style></defs><path fill="#333" d="M474.3,251.3h-1.2c-6.1,1.2-9.8,6.1-9.8,12.2v82c-2.4-3.7-4.9-6.1-7.3-9.8c-40.4-44.1-99.1-72.2-164-72.2	c-121.2,0-220.3,99.1-220.3,220.3c0,7.3,4.9,12.2,12.2,12.2c7.3,0,12.2-4.9,12.2-12.2l0,0c0-107.7,88.1-195.8,195.8-195.8	c57.5,0,108.9,24.5,145.7,64.9c2.4,2.4,4.9,6.1,7.3,8.6h-79.6c-7.3,0-12.2,4.9-12.2,12.2c0,7.3,4.9,12.2,12.2,12.2l0,0h110.2h12.2	v-12.2V263.6c0-7.3-4.9-12.2-12.2-12.2H474.3z M498.8,471.7h-1.2c-6.1,1.2-9.8,6.1-9.8,12.2c0,107.7-88.1,195.8-195.8,195.8	c-57.5,0-108.9-24.5-145.7-64.9c-2.4-2.4-4.9-6.1-7.3-8.6h79.6c7.3,0,12.2-4.9,12.2-12.2c0-7.3-4.9-12.2-12.2-12.2l0,0H108.4H96.1	v12.2v110.2c0,7.3,4.9,12.2,12.2,12.2s12.2-4.9,12.2-12.2l0,0v-82c2.4,3.7,4.9,6.1,7.3,9.8c40.4,44.1,99.1,72.2,164,72.2	c121.2,0,220.3-99.1,220.3-220.3c0-7.3-4.9-12.2-12.2-12.2H498.8z"/></svg>