<svg xmlns="http://www.w3.org/2000/svg" xmlns:xlink="http://www.w3.org/1999/xlink" width="26" height="26" version="1.1" viewBox="0 0 26 26"><defs xmlns="http://www.w3.org/1999/xhtml"><style type="text/css">[hidden]{display:none}svg:not(:root){overflow:hidden}*,::after,::before{box-sizing:border-box}[data-ng-cloak],[ng-cloak],[ng:cloak],[x-ng-cloak]{display:none!important}</style></defs><path d="M 12 0 L 12 2.25 C 6.5035342 2.7603601 2.1875 7.3703041 2.1875 13 C 2.1875 15.935 3.352 18.58325 5.25 20.53125 L 7.96875 18.09375 C 6.65975 16.79475 5.84375 14.988 5.84375 13 C 5.84375 9.3886733 8.5240379 6.3985045 12 5.90625 L 12 8 L 18.40625 4 L 12 0 z M 20.75 5.46875 L 18.0625 7.90625 C 19.3695 9.20525 20.15625 11.014 20.15625 13 C 20.15625 16.61311 17.479573 19.573545 14 20.0625 L 14 18 L 7.59375 22 L 14 26 L 14 23.75 C 19.496567 23.239538 23.8125 18.629696 23.8125 13 C 23.8125 10.067 22.648 7.41675 20.75 5.46875 z"/></svg>